<?xml version="1.0" encoding="UTF-8"?><svg xmlns="http://www.w3.org/2000/svg" viewBox="0 0 60 60"><defs><style>.c{stroke-width:1.17px;}.c,.d,.e,.f{stroke-miterlimit:10;}.c,.e{fill:none;stroke:#009c39;}.d{fill:#009c39;}.d,.f{stroke:#fff;stroke-width:.4px;}.e{stroke-linecap:round;stroke-width:1.87px;}.f{fill:#f29025;}</style></defs><g id="a"><path class="e" d="M31.63,18.68s2.41,18.53-14.26,39.11"/><g><path class="f" d="M30.74,15.91c.17,2.05-.84,3.8-2.26,3.92s-2.7-1.45-2.87-3.5c-.29-3.58,1.66-6.57,2.04-6.6,.29-.02,2.78,2.42,3.09,6.18Z"/><path class="f" d="M37.09,14.7c.17,2.05-.84,3.8-2.26,3.92s-2.7-1.45-2.87-3.5c-.29-3.58,1.66-6.57,2.04-6.6,.29-.02,2.78,2.42,3.09,6.18Z"/><path class="f" d="M33.15,9.31c.17,2.05-.84,3.8-2.26,3.92s-2.7-1.45-2.87-3.5c-.29-3.58,1.66-6.57,2.04-6.6,.29-.02,2.78,2.42,3.09,6.18Z"/><path class="f" d="M34.01,17.81c.17,2.05-.84,3.8-2.26,3.92s-2.7-1.45-2.87-3.5c-.29-3.58,1.66-6.57,2.04-6.6,.29-.02,2.78,2.42,3.09,6.18Z"/></g><path class="d" d="M23.95,47.48c.25-1.16,3.57-8.79-.13-9.31-3.7-.52-8.46,1.61-9.3,3.31-.84,1.69,4.33-1.28,6.03-.97,1.69,.31,1.29,6.45,1.72,8.77,.43,2.33,1.27,.1,1.69-1.8Z"/><path class="c" d="M23.54,30.06s1.81,8.5,5.06,7.74"/><path class="c" d="M36.61,29.61s-4.53,7.42-7.34,5.62"/><g><path class="f" d="M23.49,30.05c.24,1.72-.52,3.25-1.71,3.42s-2.35-1.09-2.59-2.81c-.42-3,1.08-5.62,1.4-5.67,.24-.03,2.46,1.9,2.91,5.06Z"/><path class="f" d="M28.79,28.71c.24,1.72-.52,3.25-1.71,3.42s-2.35-1.09-2.59-2.81c-.42-3,1.08-5.62,1.4-5.67,.24-.03,2.46,1.9,2.91,5.06Z"/><path class="f" d="M25.2,24.36c.24,1.72-.52,3.25-1.71,3.42s-2.35-1.09-2.59-2.81c-.42-3,1.08-5.62,1.4-5.67,.24-.03,2.46,1.9,2.91,5.06Z"/><path class="f" d="M26.34,31.49c.24,1.72-.52,3.25-1.71,3.42-1.19,.17-2.35-1.09-2.59-2.81-.42-3,1.08-5.62,1.4-5.67,.24-.03,2.46,1.9,2.91,5.06Z"/></g><path class="d" d="M20.53,51.81s13.35-18.46,20.56-17.2c7.21,1.26,6.14,14.59,5.73,16.12-.41,1.53-1.16-10.48-5.4-12.43-4.24-1.95-16.54,11.73-18.19,12.9-1.04,.74-2.55,2.22-2.7,.61Z"/><g><path class="f" d="M36.8,26.89c-.79,1.9-2.5,2.99-3.81,2.44s-1.73-2.53-.94-4.42c1.39-3.31,4.49-5.07,4.85-4.92,.27,.11,1.35,3.43-.1,6.91Z"/><path class="f" d="M42.99,28.74c-.79,1.9-2.5,2.99-3.81,2.44-1.31-.55-1.73-2.53-.94-4.42,1.39-3.31,4.49-5.07,4.85-4.92,.27,.11,1.35,3.43-.1,6.91Z"/><path class="f" d="M41.98,22.13c-.79,1.9-2.5,2.99-3.81,2.44s-1.73-2.53-.94-4.42c1.39-3.31,4.49-5.07,4.85-4.92,.27,.11,1.35,3.43-.1,6.91Z"/><path class="f" d="M38.83,30.08c-.79,1.9-2.5,2.99-3.81,2.44s-1.73-2.53-.94-4.42c1.39-3.31,4.49-5.07,4.85-4.92,.27,.11,1.35,3.43-.1,6.91Z"/></g></g><g id="b"/></svg>