<?xml version="1.0" encoding="UTF-8"?><svg xmlns="http://www.w3.org/2000/svg" viewBox="0 0 60 60"><defs><style>.c{stroke-width:.35px;}.c,.d,.e,.f,.g,.h,.i{stroke:#fff;}.c,.d,.f,.g,.h,.j,.i{stroke-miterlimit:10;}.c,.e{fill:#009c39;}.d{stroke-width:.44px;}.d,.f,.i{fill:#f29025;}.e{stroke-linejoin:round;stroke-width:.41px;}.f{stroke-width:.41px;}.g{stroke-width:.35px;}.g,.h,.j{fill:none;}.h{stroke-width:.41px;}.j{stroke:#009c39;stroke-linecap:round;stroke-width:1.64px;}.i{stroke-width:.41px;}</style></defs><g id="a"><path class="j" d="M26.94,39.85s-5.49,15.58-9.26,17.99"/><g><path class="c" d="M22.76,48.96s6.47-4.11-.31-10.05c-3.83-3.36-6.09-5.4-5.97-10.1,0,0-.6-.6-1.49,1.52s-4.62,8.56-.03,14.48c4.59,5.92,7.8,4.15,7.8,4.15Z"/><path class="g" d="M22.41,48.99s2.06-3.63-.44-6.8c-3.03-3.85-7.83-4.88-5.94-13.47"/></g><g><path class="i" d="M31.52,30.15s-4.78-10.79-5.97-13.39-4.12-4.53-2.99,1.19c1.13,5.72,3.46,18.18,3.73,19.91s4.85-.6,5.23-7.7Z"/><path class="f" d="M33.82,20.06s.54-10.57,5.54-16.68c4.99-6.11,1.23,6.26,1.62,9.09s-1.65,14.45-1.65,14.45l-5.95-4.76,.44-2.09Z"/><path class="d" d="M28.45,37.36s-2.82-3.65-1.62-8.45c1.2-4.8,1.66-8.22,1.66-12.14,0-3.92-.6-6.23,1.24-6.56s6.65,10.29,6.84,12.69c.19,2.4-3.59,13.62-8.12,14.45Z"/><path class="d" d="M26.48,39.78s-3.31-1.97-.91-6.33c2.4-4.36,7.22-6.09,10.06-11.52,2.83-5.42,4.31-8.52,5.13-10.03,.82-1.51,2.04-3.48,3.77-3.19s1.19,5.63-.05,10.67-7.52,25.92-18.01,20.4Z"/></g><g><path class="e" d="M20.03,52.43s1.07-.65,3.38-4.72c2.92-5.13,8.02-6.68,13.18-5.49,5.17,1.18,11.67,7.79,15.89,8.45,0,0,.74,1.21-2.45,.9-3.19-.3-12.27-2.66-15.92-.93-3.65,1.73-12.97,6.32-14.08,1.79Z"/><path class="h" d="M20.14,52.51s3.75,1.12,9.17-2.49c3.75-2.5,10.2-5.35,20.72,1.55"/></g></g><g id="b"/></svg>