<?xml version="1.0" encoding="UTF-8"?><svg xmlns="http://www.w3.org/2000/svg" viewBox="0 0 60 60"><defs><style>.c{stroke-width:.44px;}.c,.d{fill:#009c39;}.c,.d,.e,.f,.g{stroke:#fff;}.c,.d,.e,.f,.g,.h{stroke-miterlimit:10;}.d{stroke-width:.42px;}.e{stroke-width:.42px;}.e,.f,.h{fill:none;}.f{stroke-width:.44px;}.g{fill:#f29025;stroke-width:.41px;}.h{stroke:#009c39;stroke-linecap:round;stroke-width:1.75px;}</style></defs><g id="a"><ellipse class="g" cx="41.75" cy="17.79" rx="3.26" ry="2.14" transform="translate(12.87 52.8) rotate(-73.57)"/><ellipse class="g" cx="27.72" cy="5.09" rx="2.37" ry="3.48" transform="translate(2.93 18.49) rotate(-38.81)"/><ellipse class="g" cx="31.16" cy="5.38" rx="2.37" ry="3.48" transform="translate(.75 14.04) rotate(-25.68)"/><ellipse class="g" cx="42.36" cy="23.33" rx="4.54" ry="3.1" transform="translate(-4.73 34.35) rotate(-42.01)"/><ellipse class="g" cx="39.15" cy="29.03" rx="4.54" ry="3.1" transform="translate(-8.35 39.92) rotate(-49.47)"/><ellipse class="g" cx="35.09" cy="34" rx="4.54" ry="3.1" transform="translate(-13.47 28.59) rotate(-37.74)"/><ellipse class="g" cx="38.58" cy="22.84" rx="4.54" ry="3.1" transform="translate(15.47 61.26) rotate(-89.6)"/><ellipse class="g" cx="34.91" cy="29" rx="4.54" ry="3.1" transform="translate(-6.37 47.88) rotate(-64.3)"/><g><path class="h" d="M26.92,38.24s-6.33,17.42-10.37,19.99"/><path class="c" d="M21.7,50.52s-.52-.16,1.18-3.34c1.69-3.18,.53-6.34-1.87-8.51s-7.98-3.11-9.78-4.98c0,0-.86,.05,.41,1.54,1.27,1.49,5.62,5.2,6.04,7.63,.41,2.43,1.38,8.69,4.03,7.67Z"/><path class="f" d="M21.55,50.37s-1.84-2.59-1.89-5.34c-.06-3.21-.78-6.37-8.02-9.81"/><path class="d" d="M19.42,51.54s.72,.55,3.44-4.84c2.72-5.39,8.17-6.86,13.46-5.68,5.29,1.19,11.97,7.92,16.29,8.57,0,0,.77,1.23-2.5,.93-3.27-.3-12.56-2.67-16.29-.88s-13.23,6.52-14.4,1.9Z"/><path class="e" d="M19.55,51.71s3.76,.98,9.36-2.68c3.86-2.52,8-6,22.14,.11"/></g><ellipse class="g" cx="29.9" cy="36.17" rx="4.3" ry="2.83" transform="translate(-16.43 43.64) rotate(-59.59)"/><ellipse class="g" cx="35.21" cy="8.24" rx="4.3" ry="2.83" transform="translate(10.28 34.43) rotate(-59.59)"/><ellipse class="g" cx="33.35" cy="15.2" rx="4.3" ry="2.83" transform="translate(3.35 36.26) rotate(-59.59)"/><ellipse class="g" cx="30.74" cy="22.5" rx="4.3" ry="2.83" transform="translate(-4.23 37.62) rotate(-59.59)"/><ellipse class="g" cx="25.06" cy="33.67" rx="3.1" ry="4.54" transform="translate(-12.12 14.18) rotate(-25.68)"/><ellipse class="g" cx="30.01" cy="11.55" rx="3.1" ry="4.54" transform="translate(-1.41 4.72) rotate(-8.79)"/><ellipse class="g" cx="25.49" cy="27.56" rx="4.54" ry="3.1" transform="translate(-5.29 49.05) rotate(-82.16)"/><ellipse class="g" cx="27.83" cy="19.07" rx="3.1" ry="4.54" transform="translate(-.64 .97) rotate(-1.97)"/><ellipse class="g" cx="30.25" cy="29.87" rx="2.83" ry="4.3" transform="translate(-.38 .39) rotate(-.73)"/></g><g id="b"/></svg>