<?xml version="1.0" encoding="UTF-8"?><svg xmlns="http://www.w3.org/2000/svg" viewBox="0 0 848 499"><defs><style>.c{fill:#009c39;}.d{fill:#1c51a5;}</style></defs><g id="a"/><g id="b"><g><g><path class="d" d="M162.07,262.52h29.73v9.95h-10.05v59.7h-9.62v-59.7h-10.06v-9.95Z"/><path class="d" d="M216.11,332.17c-.52-1.79-.87-2.88-.87-8.56v-10.94c0-6.47-1.93-8.85-6.3-8.85h-3.32v28.35h-9.62v-69.65h14.51c9.97,0,14.25,5.27,14.25,16.02v5.47c0,7.16-2.01,11.74-6.29,14.03v.2c4.81,2.29,6.38,7.46,6.38,14.72v10.75c0,3.38,.09,5.87,1.05,8.46h-9.79Zm-10.49-59.7v21.39h3.76c3.59,0,5.77-1.79,5.77-7.36v-6.87c0-4.97-1.49-7.16-4.89-7.16h-4.63Z"/><path class="d" d="M262.28,332.17h-9.7l-1.66-12.63h-11.8l-1.66,12.63h-8.83l9.79-69.65h14.08l9.79,69.65Zm-21.95-22.09h9.27l-4.55-35.22h-.18l-4.55,35.22Z"/><path class="d" d="M266.75,262.52h15.21c9.62,0,14.34,6.07,14.34,17.21v35.22c0,11.15-4.72,17.21-14.34,17.21h-15.21v-69.65Zm9.62,9.95v49.75h5.42c3.06,0,4.89-1.79,4.89-6.76v-36.22c0-4.97-1.84-6.77-4.89-6.77h-5.42Z"/><path class="d" d="M302.43,262.52h9.62v69.65h-9.62v-69.65Z"/><path class="d" d="M327.79,281.73h-.18v50.44h-8.65v-69.65h12.06l9.71,41.69h.18v-41.69h8.57v69.65h-9.88l-11.8-50.44Z"/><path class="d" d="M370.82,293.37h13.46v22.09c0,11.14-4.89,17.51-14.34,17.51s-14.34-6.37-14.34-17.51v-36.22c0-11.14,4.89-17.51,14.34-17.51s14.34,6.37,14.34,17.51v6.76h-9.09v-7.46c0-4.98-1.93-6.87-4.98-6.87s-4.98,1.89-4.98,6.87v37.61c0,4.98,1.92,6.77,4.98,6.77s4.98-1.79,4.98-6.77v-12.83h-4.37v-9.95Z"/><path class="d" d="M435.18,332.17h-9.7l-1.66-12.63h-11.8l-1.66,12.63h-8.83l9.79-69.65h14.08l9.79,69.65Zm-21.95-22.09h9.27l-4.55-35.22h-.18l-4.55,35.22Z"/><path class="d" d="M453.99,293.37h13.46v22.09c0,11.14-4.89,17.51-14.34,17.51s-14.34-6.37-14.34-17.51v-36.22c0-11.14,4.89-17.51,14.34-17.51s14.34,6.37,14.34,17.51v6.76h-9.09v-7.46c0-4.98-1.93-6.87-4.98-6.87s-4.98,1.89-4.98,6.87v37.61c0,4.98,1.92,6.77,4.98,6.77s4.98-1.79,4.98-6.77v-12.83h-4.37v-9.95Z"/><path class="d" d="M493.78,332.17c-.52-1.79-.87-2.88-.87-8.56v-10.94c0-6.47-1.93-8.85-6.3-8.85h-3.32v28.35h-9.62v-69.65h14.51c9.97,0,14.25,5.27,14.25,16.02v5.47c0,7.16-2.01,11.74-6.29,14.03v.2c4.81,2.29,6.38,7.46,6.38,14.72v10.75c0,3.38,.09,5.87,1.05,8.46h-9.79Zm-10.49-59.7v21.39h3.76c3.59,0,5.77-1.79,5.77-7.36v-6.87c0-4.97-1.49-7.16-4.89-7.16h-4.63Z"/><path class="d" d="M508.04,279.24c0-11.14,5.16-17.51,14.6-17.51s14.6,6.37,14.6,17.51v36.22c0,11.14-5.16,17.51-14.6,17.51s-14.6-6.37-14.6-17.51v-36.22Zm9.62,36.91c0,4.98,1.92,6.87,4.98,6.87s4.98-1.89,4.98-6.87v-37.61c0-4.98-1.93-6.87-4.98-6.87s-4.98,1.89-4.98,6.87v37.61Z"/><path class="d" d="M556.4,261.73c9.36,0,14.17,6.37,14.17,17.51v2.19h-9.09v-2.88c0-4.98-1.75-6.87-4.81-6.87s-4.81,1.89-4.81,6.87,1.93,8.85,8.22,15.12c8.04,8.06,10.58,13.83,10.58,21.79,0,11.14-4.9,17.51-14.34,17.51s-14.34-6.37-14.34-17.51v-4.28h9.1v4.97c0,4.98,1.92,6.77,4.98,6.77s4.98-1.79,4.98-6.77-1.92-8.85-8.22-15.12c-8.04-8.06-10.58-13.83-10.58-21.79,0-11.14,4.81-17.51,14.17-17.51Z"/><path class="d" d="M585.35,262.52v53.73c0,4.98,1.93,6.76,4.98,6.76s4.98-1.79,4.98-6.76v-53.73h9.1v53.03c0,11.15-4.9,17.51-14.34,17.51s-14.34-6.37-14.34-17.51v-53.03h9.62Z"/><path class="d" d="M631.09,332.17c-.52-1.79-.87-2.88-.87-8.56v-10.94c0-6.47-1.93-8.85-6.3-8.85h-3.32v28.35h-9.62v-69.65h14.51c9.97,0,14.25,5.27,14.25,16.02v5.47c0,7.16-2.01,11.74-6.29,14.03v.2c4.81,2.29,6.38,7.46,6.38,14.72v10.75c0,3.38,.09,5.87,1.05,8.46h-9.79Zm-10.49-59.7v21.39h3.76c3.59,0,5.77-1.79,5.77-7.36v-6.87c0-4.97-1.49-7.16-4.89-7.16h-4.63Z"/><path class="d" d="M672.63,261.73c9.36,0,14.17,6.37,14.17,17.51v2.19h-9.09v-2.88c0-4.98-1.75-6.87-4.81-6.87s-4.81,1.89-4.81,6.87,1.92,8.85,8.22,15.12c8.04,8.06,10.58,13.83,10.58,21.79,0,11.14-4.9,17.51-14.34,17.51s-14.34-6.37-14.34-17.51v-4.28h9.1v4.97c0,4.98,1.92,6.77,4.98,6.77s4.98-1.79,4.98-6.77-1.92-8.85-8.22-15.12c-8.04-8.06-10.58-13.83-10.58-21.79,0-11.14,4.81-17.51,14.17-17.51Z"/><path class="d" d="M705.33,261.73c9.36,0,14.17,6.37,14.17,17.51v2.19h-9.09v-2.88c0-4.98-1.75-6.87-4.81-6.87s-4.81,1.89-4.81,6.87,1.93,8.85,8.22,15.12c8.04,8.06,10.58,13.83,10.58,21.79,0,11.14-4.9,17.51-14.34,17.51s-14.34-6.37-14.34-17.51v-4.28h9.1v4.97c0,4.98,1.92,6.77,4.98,6.77s4.98-1.79,4.98-6.77-1.92-8.85-8.22-15.12c-8.04-8.06-10.58-13.83-10.58-21.79,0-11.14,4.81-17.51,14.17-17.51Z"/><path class="d" d="M756.23,332.17h-9.7l-1.66-12.63h-11.8l-1.66,12.63h-8.83l9.79-69.65h14.08l9.79,69.65Zm-21.95-22.09h9.27l-4.55-35.22h-.17l-4.55,35.22Z"/><path class="d" d="M780.98,311.97h.18l6.47-49.45h13.38v69.65h-9.09v-49.95h-.17l-6.47,49.95h-9.09l-7-49.25h-.18v49.25h-8.39v-69.65h13.38l7,49.45Z"/><path class="d" d="M817.02,309.09l-12.15-46.56h10.05l7.26,31.74h.18l7.26-31.74h9.18l-12.15,46.56v23.08h-9.62v-23.08Z"/></g><path class="c" d="M143.03,347.68s-44.73-27.67-30.71-113.73c9.56-58.64-53.45-63.12-58.57-63.69,0,0,44.16,16.68,49.09,40.56,0,0-29.95,7.96-49.28-10.99-19.33-18.95-25.4-29.57-44.35-36.39,0,0,86.81-22.37,109.56,41.7,0,0,17.44-39.05,72.79-62.93,55.35-23.88,90.6-23.88,90.6-23.88,0,0-36.01,26.16-51.18,69.37-15.16,43.22-56.49,62.55-91.36,64.45,0,0,4.93-51.94,72.79-96.67,0,0-76.17,19.34-92.5,98.18-10.99,53.07,23.12,94.02,23.12,94.02Z"/><g><path class="c" d="M228.33,364.36c-75.44,3.03-98.94-61.79-99.7-93.26-.76-31.46,23.12-67.1,23.12-67.1,0,0-30.33,30.33-28.43,74.3,1.9,43.97,33.74,101.98,105.39,102.36,37.41,.2,63.23-16.98,79.59-39.8h-16.39c-14.25,12.93-34.67,22.34-63.58,23.5Z"/><path class="c" d="M283.68,187.33s28.11,26.26,36.15,63.12h8.64c-8.76-34.01-36.97-59.68-44.8-63.12Z"/></g></g></g></svg>