<?xml version="1.0" encoding="UTF-8"?><svg xmlns="http://www.w3.org/2000/svg" viewBox="0 0 60 60"><defs><style>.c,.d,.e{fill:#009c39;}.f,.d,.e,.g,.h{stroke:#fff;stroke-miterlimit:10;}.f,.g{fill:#f29025;}.f,.h{stroke-width:.38px;}.d,.g{stroke-width:.38px;}.e{stroke-width:.4px;}.h{fill:none;}</style></defs><g id="a"><g><path class="f" d="M20.71,35.12s-1.64,.42-3.09-.23-2.47-2.08-2.64-3.51,.69-2.87,1.82-3.52,1.91-1.02,2.1-1.31,.25-.28,.45-.29,.26,.25,.47,.31,1.8,.75,2.4,1.09,1.88,1.54,1.94,3.13-1.15,3.83-3.46,4.33Z"/><path class="c" d="M27.22,32.79c-1.53,3.75-4.23,7.13-4.23,7.13l-.47,.81,.58,.87,.84-1s2.71-3.38,4.23-7.13"/><g><path class="f" d="M37.86,24.96s-1.35-1.01-1.76-2.55,.07-3.23,1.08-4.25,2.67-1.27,3.88-.79,1.99,.85,2.34,.82,.37,.02,.51,.16-.03,.36,.05,.56,.54,1.87,.66,2.55-.02,2.43-1.22,3.48-3.7,1.51-5.54,.02Z"/><path class="f" d="M39.58,15.9s-.9-1.43-.73-3.01c.17-1.58,1.22-2.99,2.53-3.59s2.95-.23,3.91,.65,1.56,1.5,1.89,1.6,.34,.15,.42,.34-.16,.32-.15,.54-.16,1.94-.3,2.62-.89,2.27-2.38,2.81-4,.09-5.18-1.96Z"/><path class="f" d="M41.63,10.66s-1.59,.59-3.09,.09c-1.51-.5-2.68-1.82-2.98-3.22s.39-2.93,1.45-3.69,1.79-1.21,1.96-1.52,.22-.3,.42-.34,.28,.22,.5,.26,1.86,.56,2.5,.84,2.03,1.34,2.25,2.91-.75,3.93-2.99,4.66Z"/><path class="f" d="M34.8,17.61s-1.35-1.01-1.76-2.55,.07-3.23,1.08-4.25,2.67-1.27,3.88-.79,1.99,.85,2.34,.82,.37,.02,.51,.16-.03,.36,.05,.56,.54,1.87,.66,2.55-.02,2.43-1.22,3.48-3.7,1.51-5.54,.02Z"/><path class="f" d="M33.24,23.98c-.05,0-1.66,.31-3.07-.44-1.4-.74-2.33-2.24-2.4-3.67s.88-2.82,2.05-3.39,1.97-.89,2.18-1.16,.26-.26,.47-.26,.24,.26,.45,.34,1.74,.87,2.32,1.25,1.78,1.66,1.73,3.25-1.4,3.75-3.74,4.09Z"/><path class="f" d="M32.06,30.19s-1.56-.67-2.31-2.06-.7-3.16,.04-4.39,2.3-1.86,3.58-1.68,2.13,.35,2.46,.24,.36-.07,.53,.04,.06,.35,.18,.53,.97,1.69,1.24,2.33,.56,2.37-.36,3.66-3.24,2.34-5.38,1.33Z"/><path class="g" d="M27.54,32.67c-.05,0-1.67,.3-3.06-.45s-2.32-2.26-2.37-3.69,.9-2.82,2.07-3.38,1.98-.88,2.19-1.15,.27-.26,.47-.26,.24,.27,.44,.35,1.74,.88,2.32,1.26,1.77,1.67,1.71,3.26-1.42,3.74-3.76,4.06Z"/><path class="f" d="M28.14,35.71s-1.09-1.29-1.14-2.88,.79-3.14,2-3.91,2.89-.64,3.96,.09,1.75,1.27,2.1,1.32,.36,.1,.46,.27-.11,.34-.08,.56,.11,1.94,.07,2.64-.56,2.37-1.96,3.12-3.95,.65-5.4-1.21Z"/></g><g><path class="c" d="M16.48,52.26l-3.36,4.63s-.53,.57,.07,.98,.88-.14,.88-.14l3.23-4.61"/><path class="d" d="M16.53,49.2s-3.46-2.89-2.91-7.7c.55-4.81,1.96-6.56-1.08-11.26,0,0-.89-1.39,1.59-.13,1.97,1,9.09,5.22,8.84,11.09"/><path class="h" d="M12.57,29.73s7.87,5.94,7.28,13.99"/><path class="e" d="M16.34,52.24s-.81-6.05,6.23-10.73c7.04-4.68,7.34-2.59,13.77-7.77,1.89-1.52,2.55,3.03,2.55,4.46,0,1.43-1.04,11.83-10.05,14.95-8.33,2.88-11.92-.15-12.5-.91Z"/><path class="h" d="M16.93,52.67s2.02-2.82,8.96-6.4c6.94-3.58,11.41-11.71,11.59-12.76"/></g></g></g><g id="b"/></svg>